<svg version="1.1" xmlns="http://www.w3.org/2000/svg" viewBox="0 0 2496.8457349286928 3060.2017721198335" width="7490.537204786078" height="9180.6053163595">
  <!-- svg-source:excalidraw -->
  
  <defs>
    <style class="style-fonts">
      @font-face {
        font-family: "Virgil";
        src: url("https://excalidraw.com/Virgil.woff2");
      }
      @font-face {
        font-family: "Cascadia";
        src: url("https://excalidraw.com/Cascadia.woff2");
      }
      @font-face {
        font-family: "Assistant";
        src: url("https://excalidraw.com/Assistant-Regular.woff2");
      }
    </style>
    
  </defs>
  <rect x="0" y="0" width="2496.8457349286928" height="3060.2017721198335" fill="#ffffff"></rect><g stroke-linecap="round" transform="translate(358.9073238555238 11.465286254882812) rotate(0 431.58689880371094 185.44095611572266)"><path d="M32 0 C282.52 3.33, 533.99 3.42, 831.17 0 M32 0 C304.79 -2.17, 578.06 -2.46, 831.17 0 M831.17 0 C853.05 -0.06, 864.09 9.06, 863.17 32 M831.17 0 C850.75 -1.54, 861.02 8.65, 863.17 32 M863.17 32 C863.08 139.52, 861.57 247.12, 863.17 338.88 M863.17 32 C861.49 107.63, 861.52 182.3, 863.17 338.88 M863.17 338.88 C861.44 359.88, 854.45 369.91, 831.17 370.88 M863.17 338.88 C864.01 360.19, 853.88 369.21, 831.17 370.88 M831.17 370.88 C542.78 373.05, 254.44 372.42, 32 370.88 M831.17 370.88 C613.92 373.28, 397.21 373.2, 32 370.88 M32 370.88 C12.65 369.25, -1.51 360.87, 0 338.88 M32 370.88 C11.42 372.08, 0.47 361.89, 0 338.88 M0 338.88 C1.68 276.08, 3.33 215.63, 0 32 M0 338.88 C1.54 261.17, 1.18 182.31, 0 32 M0 32 C-0.26 9.73, 9.03 -1.05, 32 0 M0 32 C0.48 11.44, 11.66 1.55, 32 0" stroke="#1e1e1e" stroke-width="2" fill="none"></path></g><g transform="translate(685.3512630645082 61.407318115234375) rotate(0 53.3642578125 23)"><text x="0" y="18.400390625" font-family="Helvetica, Segoe UI Emoji" font-size="20px" fill="#1e1e1e" text-anchor="start" style="white-space: pre;" direction="ltr" dominant-baseline="alphabetic">Parking Lot </text><text x="0" y="41.400390625" font-family="Helvetica, Segoe UI Emoji" font-size="20px" fill="#1e1e1e" text-anchor="start" style="white-space: pre;" direction="ltr" dominant-baseline="alphabetic"></text></g><g transform="translate(405.09583093560195 110.74163818359375) rotate(0 392.578125 120)"><text x="0" y="19.3125" font-family="Cascadia, Segoe UI Emoji" font-size="20px" fill="#1e1e1e" text-anchor="start" style="white-space: pre;" direction="ltr" dominant-baseline="alphabetic">1. Parking Lot Can have multiple floors </text><text x="0" y="43.3125" font-family="Cascadia, Segoe UI Emoji" font-size="20px" fill="#1e1e1e" text-anchor="start" style="white-space: pre;" direction="ltr" dominant-baseline="alphabetic">2. Parking lot should have multiple entry and exit points </text><text x="0" y="67.3125" font-family="Cascadia, Segoe UI Emoji" font-size="20px" fill="#1e1e1e" text-anchor="start" style="white-space: pre;" direction="ltr" dominant-baseline="alphabetic">3. Parking ticket at entry and pay at exit point </text><text x="0" y="91.3125" font-family="Cascadia, Segoe UI Emoji" font-size="20px" fill="#1e1e1e" text-anchor="start" style="white-space: pre;" direction="ltr" dominant-baseline="alphabetic">4. Display Message at entry if lot is full</text><text x="0" y="115.3125" font-family="Cascadia, Segoe UI Emoji" font-size="20px" fill="#1e1e1e" text-anchor="start" style="white-space: pre;" direction="ltr" dominant-baseline="alphabetic">5. Many type of parking slots(compact, large, Disabled,Motorcycle)</text><text x="0" y="139.3125" font-family="Cascadia, Segoe UI Emoji" font-size="20px" fill="#1e1e1e" text-anchor="start" style="white-space: pre;" direction="ltr" dominant-baseline="alphabetic">6. Parking different type of vehicles.(Car, truck, van, motercycle)</text><text x="0" y="163.3125" font-family="Cascadia, Segoe UI Emoji" font-size="20px" fill="#1e1e1e" text-anchor="start" style="white-space: pre;" direction="ltr" dominant-baseline="alphabetic">7. Each Parking Floor should should display free slots</text><text x="0" y="187.3125" font-family="Cascadia, Segoe UI Emoji" font-size="20px" fill="#1e1e1e" text-anchor="start" style="white-space: pre;" direction="ltr" dominant-baseline="alphabetic">8. Fee charged hourly </text><text x="0" y="211.3125" font-family="Cascadia, Segoe UI Emoji" font-size="20px" fill="#1e1e1e" text-anchor="start" style="white-space: pre;" direction="ltr" dominant-baseline="alphabetic">9. Admin add parking floor and parking spots</text><text x="0" y="235.3125" font-family="Cascadia, Segoe UI Emoji" font-size="20px" fill="#1e1e1e" text-anchor="start" style="white-space: pre;" direction="ltr" dominant-baseline="alphabetic"></text></g><g stroke-linecap="round" transform="translate(1258.4731502715395 10) rotate(0 187.69869995117188 185.6768798828125)"><path d="M32 0 C103.82 -1.2, 177.2 -1.11, 343.4 0 M32 0 C105.25 -1.69, 179.65 -1.47, 343.4 0 M343.4 0 C363.23 -1.51, 375.76 11.99, 375.4 32 M343.4 0 C366.52 -1.75, 375.21 8.75, 375.4 32 M375.4 32 C376.85 117.75, 376.9 201.33, 375.4 339.35 M375.4 32 C377.04 142.55, 377.41 252.49, 375.4 339.35 M375.4 339.35 C374.85 361.49, 363.83 369.94, 343.4 371.35 M375.4 339.35 C374.72 362.45, 364.04 372.84, 343.4 371.35 M343.4 371.35 C248.14 373.32, 152.89 371.53, 32 371.35 M343.4 371.35 C237.6 371.61, 132.05 371.86, 32 371.35 M32 371.35 C11.1 369.59, 1.34 362.28, 0 339.35 M32 371.35 C12.08 369.98, 0.25 362.95, 0 339.35 M0 339.35 C-0.69 219.09, 1.22 98.52, 0 32 M0 339.35 C1.52 244.33, 1.14 149.84, 0 32 M0 32 C-0.07 11.44, 10.98 -0.12, 32 0 M0 32 C-1.21 8.84, 9.34 0.14, 32 0" stroke="#1e1e1e" stroke-width="2" fill="none"></path></g><g stroke-linecap="round" transform="translate(1442.7926693145082 52.31744384765625) rotate(0 0.06396484375 0.0640106201171875)"><path d="M0.03 0 C0.05 0, 0.08 0, 0.1 0 M0.03 0 C0.05 0, 0.07 0, 0.1 0 M0.1 0 C0.44 0.6, -0.03 -0.1, 0.13 0.03 M0.1 0 C-0.17 -0.39, 0.57 0.55, 0.13 0.03 M0.13 0.03 C0.13 0.06, 0.13 0.08, 0.13 0.1 M0.13 0.03 C0.13 0.05, 0.13 0.06, 0.13 0.1 M0.13 0.1 C0.24 0.52, -0.01 0.62, 0.1 0.13 M0.13 0.1 C0.82 0.46, -0.21 0.83, 0.1 0.13 M0.1 0.13 C0.08 0.13, 0.07 0.13, 0.03 0.13 M0.1 0.13 C0.08 0.13, 0.06 0.13, 0.03 0.13 M0.03 0.13 C0.2 0.14, -0.38 0.64, 0 0.1 M0.03 0.13 C-0.15 0.41, -0.2 -0.46, 0 0.1 M0 0.1 C0 0.08, 0 0.06, 0 0.03 M0 0.1 C0 0.08, 0 0.06, 0 0.03 M0 0.03 C-0.15 0.57, -0.45 0.65, 0.03 0 M0 0.03 C0.22 0.47, 0.7 -0.52, 0.03 0" stroke="#1e1e1e" stroke-width="2" fill="none"></path></g><g transform="translate(1345.8078060332582 40.261871337890625) rotate(0 93.75 12)"><text x="93.75" y="19.3125" font-family="Cascadia, Segoe UI Emoji" font-size="20px" fill="#1e1e1e" text-anchor="middle" style="white-space: pre;" direction="ltr" dominant-baseline="alphabetic">CLASSES/ENTITIES</text></g><g transform="translate(1302.2463436309145 117.69680786132812) rotate(0 82.03125 12)"><text x="82.03125" y="19.3125" font-family="Cascadia, Segoe UI Emoji" font-size="20px" fill="#1e1e1e" text-anchor="middle" style="white-space: pre;" direction="ltr" dominant-baseline="alphabetic">1. PARING SLOT</text></g><g transform="translate(1301.3512630645082 143.34213256835938) rotate(0 99.609375 84)"><text x="0" y="19.3125" font-family="Cascadia, Segoe UI Emoji" font-size="20px" fill="#1e1e1e" text-anchor="start" style="white-space: pre;" direction="ltr" dominant-baseline="alphabetic">2. VEHICLES</text><text x="0" y="43.3125" font-family="Cascadia, Segoe UI Emoji" font-size="20px" fill="#1e1e1e" text-anchor="start" style="white-space: pre;" direction="ltr" dominant-baseline="alphabetic">3. PARKING FLOOR</text><text x="0" y="67.3125" font-family="Cascadia, Segoe UI Emoji" font-size="20px" fill="#1e1e1e" text-anchor="start" style="white-space: pre;" direction="ltr" dominant-baseline="alphabetic">4. PARKING LOT </text><text x="0" y="91.3125" font-family="Cascadia, Segoe UI Emoji" font-size="20px" fill="#1e1e1e" text-anchor="start" style="white-space: pre;" direction="ltr" dominant-baseline="alphabetic">5. ENTRY POINT</text><text x="0" y="115.3125" font-family="Cascadia, Segoe UI Emoji" font-size="20px" fill="#1e1e1e" text-anchor="start" style="white-space: pre;" direction="ltr" dominant-baseline="alphabetic">6. EXIT POINT</text><text x="0" y="139.3125" font-family="Cascadia, Segoe UI Emoji" font-size="20px" fill="#1e1e1e" text-anchor="start" style="white-space: pre;" direction="ltr" dominant-baseline="alphabetic">7. PARKING TICKET</text><text x="0" y="163.3125" font-family="Cascadia, Segoe UI Emoji" font-size="20px" fill="#1e1e1e" text-anchor="start" style="white-space: pre;" direction="ltr" dominant-baseline="alphabetic">8. PAYMENTS</text></g><g stroke-linecap="round" transform="translate(368.8250427246094 2342.953053858115) rotate(0 199.48289489746094 201.5535888671875)"><path d="M32 0 C132.27 -2.44, 233.31 -2.11, 366.97 0 M32 0 C152.56 0.44, 273.76 -0.1, 366.97 0 M366.97 0 C390.04 -1.43, 397.2 11.14, 398.97 32 M366.97 0 C388.22 -1.55, 399.35 10.69, 398.97 32 M398.97 32 C399.96 135.45, 399.95 236.99, 398.97 371.11 M398.97 32 C398.46 154.91, 398.69 277.58, 398.97 371.11 M398.97 371.11 C397.75 390.57, 386.32 402.78, 366.97 403.11 M398.97 371.11 C397.92 390.36, 389.97 404.99, 366.97 403.11 M366.97 403.11 C246.81 404.54, 124.1 404.34, 32 403.11 M366.97 403.11 C282.27 401.49, 198.92 401.26, 32 403.11 M32 403.11 C9.27 401.95, 0.72 391.39, 0 371.11 M32 403.11 C9.18 401.96, 1.35 392.16, 0 371.11 M0 371.11 C-2 252.84, 0.51 136.1, 0 32 M0 371.11 C-0.25 247.29, -0.21 125.12, 0 32 M0 32 C1.76 8.7, 10.29 0.13, 32 0 M0 32 C2.15 9.89, 9.99 -1.11, 32 0" stroke="#1e1e1e" stroke-width="2" fill="none"></path></g><g transform="translate(511.9327392578125 2381.4681295417085) rotate(0 70.3125 24)"><text x="0" y="19.3125" font-family="Cascadia, Segoe UI Emoji" font-size="20px" fill="#1e1e1e" text-anchor="start" style="white-space: pre;" direction="ltr" dominant-baseline="alphabetic">Parking Slot</text><text x="0" y="43.3125" font-family="Cascadia, Segoe UI Emoji" font-size="20px" fill="#1e1e1e" text-anchor="start" style="white-space: pre;" direction="ltr" dominant-baseline="alphabetic"></text></g><g transform="translate(382.9327392578125 2438.4681295417085) rotate(0 76.171875 48)"><text x="0" y="19.3125" font-family="Cascadia, Segoe UI Emoji" font-size="20px" fill="#1e1e1e" text-anchor="start" style="white-space: pre;" direction="ltr" dominant-baseline="alphabetic">1. id</text><text x="0" y="43.3125" font-family="Cascadia, Segoe UI Emoji" font-size="20px" fill="#1e1e1e" text-anchor="start" style="white-space: pre;" direction="ltr" dominant-baseline="alphabetic">2. vehicle</text><text x="0" y="67.3125" font-family="Cascadia, Segoe UI Emoji" font-size="20px" fill="#1e1e1e" text-anchor="start" style="white-space: pre;" direction="ltr" dominant-baseline="alphabetic">3. spotType</text><text x="0" y="91.3125" font-family="Cascadia, Segoe UI Emoji" font-size="20px" fill="#1e1e1e" text-anchor="start" style="white-space: pre;" direction="ltr" dominant-baseline="alphabetic">4. isSlotFree</text></g><g stroke-linecap="round"><g transform="translate(369.2528076171875 2556.0386861823335) rotate(0 198.8582763671875 0.34527587890625)"><path d="M0.14 0.27 C66.48 0.23, 330.96 0.01, 397.21 0.11 M-1.24 -0.63 C64.97 -0.54, 329.65 0.86, 396 1.35" stroke="#1e1e1e" stroke-width="2" fill="none"></path></g></g><mask></mask><g transform="translate(393.9327392578125 2576.4681295417085) rotate(0 105.46875 24)"><text x="0" y="19.3125" font-family="Cascadia, Segoe UI Emoji" font-size="20px" fill="#1e1e1e" text-anchor="start" style="white-space: pre;" direction="ltr" dominant-baseline="alphabetic">1. parkVehice()</text><text x="0" y="43.3125" font-family="Cascadia, Segoe UI Emoji" font-size="20px" fill="#1e1e1e" text-anchor="start" style="white-space: pre;" direction="ltr" dominant-baseline="alphabetic">2. removeVehicle()</text></g><g stroke-linecap="round" transform="translate(294.63330078125 2894.6878561042085) rotate(0 116.785888671875 77.7569580078125)"><path d="M32 0 C91.78 0.36, 148.92 -1.46, 201.57 0 M32 0 C69.14 0.41, 104.82 0.21, 201.57 0 M201.57 0 C221.62 0.88, 233.54 12.67, 233.57 32 M201.57 0 C222.27 -1.1, 232.22 9.43, 233.57 32 M233.57 32 C231.7 65.34, 233.89 95.69, 233.57 123.51 M233.57 32 C233.35 66.23, 234.75 101.36, 233.57 123.51 M233.57 123.51 C233.89 145.94, 224.46 156.6, 201.57 155.51 M233.57 123.51 C234.02 144.79, 225.16 156.29, 201.57 155.51 M201.57 155.51 C135.71 156.93, 66.4 154.55, 32 155.51 M201.57 155.51 C158.33 155.28, 113.51 155.25, 32 155.51 M32 155.51 C10.75 154.7, 1.7 145.32, 0 123.51 M32 155.51 C9.94 155.92, -0.59 146.09, 0 123.51 M0 123.51 C0.08 103.47, 0.44 81.55, 0 32 M0 123.51 C-0.61 90.08, -1.05 55.91, 0 32 M0 32 C-1.76 9.01, 10.75 1.19, 32 0 M0 32 C1.63 10.87, 12.68 -2.27, 32 0" stroke="#1e1e1e" stroke-width="2" fill="none"></path></g><g stroke-linecap="round"><g transform="translate(412.97982295224153 2873.9888204596773) rotate(0 13.874103383301986 -56.46916198730469)"><path d="M0.26 -0.32 C4.9 -19.07, 22.96 -94.44, 27.4 -113.27 M-1.06 -1.53 C3.42 -20.04, 21.2 -93.46, 26.26 -111.91" stroke="#1e1e1e" stroke-width="2" fill="none"></path></g><g transform="translate(412.97982295224153 2873.9888204596773) rotate(0 13.874103383301986 -56.46916198730469)"><path d="M28.72 -87.03 C27.7 -94.25, 27.02 -101.71, 26.26 -111.91 M28.72 -87.03 C27.53 -93.54, 26.96 -100.29, 26.26 -111.91" stroke="#1e1e1e" stroke-width="2" fill="none"></path></g><g transform="translate(412.97982295224153 2873.9888204596773) rotate(0 13.874103383301986 -56.46916198730469)"><path d="M12.16 -91.27 C15.52 -97.39, 19.26 -103.72, 26.26 -111.91 M12.16 -91.27 C15.42 -96.6, 19.3 -102.22, 26.26 -111.91" stroke="#1e1e1e" stroke-width="2" fill="none"></path></g></g><mask></mask><g stroke-linecap="round" transform="translate(563.3746337890625 2907.1214498542085) rotate(0 127.36065673828125 70.33697509765625)"><path d="M32 0 C100.07 -1.2, 168.1 0.8, 222.72 0 M32 0 C71.56 -1.92, 112.27 -1.43, 222.72 0 M222.72 0 C244.72 -1.09, 255.05 10.93, 254.72 32 M222.72 0 C241.97 2.22, 255.26 11.86, 254.72 32 M254.72 32 C255.07 62.76, 253.63 88.97, 254.72 108.67 M254.72 32 C253.29 49.53, 253.83 68.6, 254.72 108.67 M254.72 108.67 C255.5 131.67, 243.18 142.3, 222.72 140.67 M254.72 108.67 C252.48 129.07, 241.87 138.5, 222.72 140.67 M222.72 140.67 C148.21 139.49, 78.04 141.58, 32 140.67 M222.72 140.67 C150.97 140.43, 78.98 140.03, 32 140.67 M32 140.67 C11.28 142.67, 1.54 129.2, 0 108.67 M32 140.67 C9.47 139.97, -1.26 130.95, 0 108.67 M0 108.67 C-0.11 83.55, -0.51 57.5, 0 32 M0 108.67 C-0.64 91.47, -0.84 75.82, 0 32 M0 32 C0.85 11.62, 9.01 -0.88, 32 0 M0 32 C-1.36 12.71, 9.54 -0.68, 32 0" stroke="#1e1e1e" stroke-width="2" fill="none"></path></g><g stroke-linecap="round" transform="translate(832.0096435546875 2906.02751674874) rotate(0 146.8121337890625 70.21307373046875)"><path d="M32 0 C83.95 -1.61, 133.47 -1.06, 261.62 0 M32 0 C114.83 -0.85, 196.58 -0.32, 261.62 0 M261.62 0 C282.88 -1.02, 293.29 11.92, 293.62 32 M261.62 0 C283.06 -0.05, 295.04 8.53, 293.62 32 M293.62 32 C294.74 57.43, 292.75 81.91, 293.62 108.43 M293.62 32 C293.85 61.37, 294.11 89.31, 293.62 108.43 M293.62 108.43 C291.97 131.61, 283.02 139.12, 261.62 140.43 M293.62 108.43 C292.12 132.01, 284.02 138.19, 261.62 140.43 M261.62 140.43 C213.03 140.93, 165.1 141.4, 32 140.43 M261.62 140.43 C176.1 141.19, 90.22 140.89, 32 140.43 M32 140.43 C9.41 139.68, -1.97 130.86, 0 108.43 M32 140.43 C12.31 141.67, -0.61 128.3, 0 108.43 M0 108.43 C1.9 80.98, 1.52 54.34, 0 32 M0 108.43 C-0.26 78.5, -1.1 47.91, 0 32 M0 32 C-0.4 8.93, 10.63 -0.12, 32 0 M0 32 C1.92 9.46, 8.66 -0.01, 32 0" stroke="#1e1e1e" stroke-width="2" fill="none"></path></g><g stroke-linecap="round" transform="translate(10 2895.3045553229585) rotate(0 122.81715393066406 74.02969360351562)"><path d="M32 0 C93.72 0.21, 156.23 2.96, 213.63 0 M32 0 C91.67 -0.64, 151.29 -1.14, 213.63 0 M213.63 0 C235.57 -1.1, 244.51 10.33, 245.63 32 M213.63 0 C234.72 -0.07, 247.42 12.95, 245.63 32 M245.63 32 C246.5 65.4, 245.04 97.64, 245.63 116.06 M245.63 32 C244.42 48.74, 244.63 67.78, 245.63 116.06 M245.63 116.06 C247.38 135.85, 233.18 149.11, 213.63 148.06 M245.63 116.06 C243.95 136.11, 236.31 149.82, 213.63 148.06 M213.63 148.06 C145.28 148.46, 80.59 147.41, 32 148.06 M213.63 148.06 C142.05 148.29, 72.23 147, 32 148.06 M32 148.06 C9.6 147.31, -0.39 138.75, 0 116.06 M32 148.06 C11.46 146.85, -1.57 137.52, 0 116.06 M0 116.06 C-0.6 100.36, 0.76 82.42, 0 32 M0 116.06 C0.01 94.16, 0.2 73.68, 0 32 M0 32 C-0.08 9.21, 11.67 0.93, 32 0 M0 32 C0.35 11.39, 10.79 1.65, 32 0" stroke="#1e1e1e" stroke-width="2" fill="none"></path></g><g stroke-linecap="round"><g transform="translate(133.4661391055452 2864.737782862021) rotate(0 116.16204365303037 -52.04603861456553)"><path d="M0.55 0.99 C39.1 -16.28, 192.73 -86.15, 231.17 -103.61 M-0.63 0.47 C38.29 -17.17, 194.26 -88.35, 233.28 -105.48" stroke="#1e1e1e" stroke-width="2" fill="none"></path></g><g transform="translate(133.4661391055452 2864.737782862021) rotate(0 116.16204365303037 -52.04603861456553)"><path d="M215.35 -88.06 C222.14 -95.05, 226.42 -100, 233.28 -105.48 M215.35 -88.06 C220.82 -94.61, 226.44 -99.51, 233.28 -105.48" stroke="#1e1e1e" stroke-width="2" fill="none"></path></g><g transform="translate(133.4661391055452 2864.737782862021) rotate(0 116.16204365303037 -52.04603861456553)"><path d="M208.35 -103.66 C217.15 -106.21, 223.44 -106.69, 233.28 -105.48 M208.35 -103.66 C216.02 -105.12, 223.92 -104.96, 233.28 -105.48" stroke="#1e1e1e" stroke-width="2" fill="none"></path></g></g><mask></mask><g stroke-linecap="round"><g transform="translate(694.2134399414062 2872.9180196784273) rotate(0 -47.068084716796875 -50.94654846191406)"><path d="M-0.51 -0.41 C-16.27 -17.37, -79.01 -84.97, -94.44 -101.77 M1.42 -1.66 C-14.53 -18.41, -79.76 -83.25, -95.55 -100.17" stroke="#1e1e1e" stroke-width="2" fill="none"></path></g><g transform="translate(694.2134399414062 2872.9180196784273) rotate(0 -47.068084716796875 -50.94654846191406)"><path d="M-73.04 -89.3 C-80.64 -93.25, -86.68 -94.32, -95.55 -100.17 M-73.04 -89.3 C-81.7 -94.03, -89.65 -98.1, -95.55 -100.17" stroke="#1e1e1e" stroke-width="2" fill="none"></path></g><g transform="translate(694.2134399414062 2872.9180196784273) rotate(0 -47.068084716796875 -50.94654846191406)"><path d="M-85.29 -77.37 C-89.12 -84.94, -91.4 -89.68, -95.55 -100.17 M-85.29 -77.37 C-89.53 -86.3, -93.09 -94.64, -95.55 -100.17" stroke="#1e1e1e" stroke-width="2" fill="none"></path></g></g><mask></mask><g stroke-linecap="round"><g transform="translate(983.7150353742531 2878.277760889365) rotate(0 -126.40761129166248 -53.00038146972656)"><path d="M-0.67 -0.08 C-42.49 -18.08, -210.14 -89.25, -252.13 -106.88 M1.18 -1.17 C-40.63 -18.53, -210.31 -88.58, -252.71 -105.8" stroke="#1e1e1e" stroke-width="2" fill="none"></path></g><g transform="translate(983.7150353742531 2878.277760889365) rotate(0 -126.40761129166248 -53.00038146972656)"><path d="M-227.73 -104.8 C-232.89 -104, -239.22 -104.98, -252.71 -105.8 M-227.73 -104.8 C-234.78 -105.78, -242.3 -105.1, -252.71 -105.8" stroke="#1e1e1e" stroke-width="2" fill="none"></path></g><g transform="translate(983.7150353742531 2878.277760889365) rotate(0 -126.40761129166248 -53.00038146972656)"><path d="M-234.22 -88.98 C-238.22 -91.31, -243.25 -95.47, -252.71 -105.8 M-234.22 -88.98 C-239.31 -94.81, -244.83 -99.03, -252.71 -105.8" stroke="#1e1e1e" stroke-width="2" fill="none"></path></g></g><mask></mask><g transform="translate(33.1943359375 2913.06462612374) rotate(0 82.03125 12)"><text x="0" y="19.3125" font-family="Cascadia, Segoe UI Emoji" font-size="20px" fill="#1e1e1e" text-anchor="start" style="white-space: pre;" direction="ltr" dominant-baseline="alphabetic">CarParkingSlot</text></g><g transform="translate(316.9327392578125 2919.4681295417085) rotate(0 82.03125 12)"><text x="0" y="19.3125" font-family="Cascadia, Segoe UI Emoji" font-size="20px" fill="#1e1e1e" text-anchor="start" style="white-space: pre;" direction="ltr" dominant-baseline="alphabetic">BusParkingSlot</text></g><g transform="translate(583.501708984375 2923.833974268271) rotate(0 87.890625 12)"><text x="0" y="19.3125" font-family="Cascadia, Segoe UI Emoji" font-size="20px" fill="#1e1e1e" text-anchor="start" style="white-space: pre;" direction="ltr" dominant-baseline="alphabetic">ElectricCarSlot</text></g><g transform="translate(852.0745849609375 2917.62273159249) rotate(0 123.046875 12)"><text x="0" y="19.3125" font-family="Cascadia, Segoe UI Emoji" font-size="20px" fill="#1e1e1e" text-anchor="start" style="white-space: pre;" direction="ltr" dominant-baseline="alphabetic">MotorCycleParkingSlot</text></g><g stroke-linecap="round" transform="translate(1079.3071899414062 2351.5452169440523) rotate(0 171.58316040039062 95.485107421875)"><path d="M32 0 C139.9 -0.75, 250.47 -3.36, 311.17 0 M32 0 C116.5 0.35, 200.53 0.43, 311.17 0 M311.17 0 C333.98 -1.84, 344.62 10.41, 343.17 32 M311.17 0 C331 -0.45, 342.16 9.89, 343.17 32 M343.17 32 C343.58 56.62, 345.92 82.53, 343.17 158.97 M343.17 32 C343.81 65.04, 343.1 98.57, 343.17 158.97 M343.17 158.97 C341.87 181.99, 331.17 190.74, 311.17 190.97 M343.17 158.97 C342.81 178.36, 334.67 191.17, 311.17 190.97 M311.17 190.97 C223.04 188.63, 136.79 190.89, 32 190.97 M311.17 190.97 C244.4 189.63, 178.12 189.26, 32 190.97 M32 190.97 C9.32 190.89, -1.2 181.31, 0 158.97 M32 190.97 C11.96 190.07, 2.02 182.56, 0 158.97 M0 158.97 C-0.28 127.11, 1.41 95.61, 0 32 M0 158.97 C0.57 114.08, 0.79 70.64, 0 32 M0 32 C-0.85 11.74, 10.55 0.73, 32 0 M0 32 C-0.97 12.72, 11.75 1.55, 32 0" stroke="#1e1e1e" stroke-width="2" fill="none"></path></g><g transform="translate(1222.9327392578125 2379.656972315146) rotate(0 41.015625 12)"><text x="0" y="19.3125" font-family="Cascadia, Segoe UI Emoji" font-size="20px" fill="#1e1e1e" text-anchor="start" style="white-space: pre;" direction="ltr" dominant-baseline="alphabetic">Vehicle</text></g><g transform="translate(1127.9327392578125 2443.656972315146) rotate(0 123.046875 48)"><text x="0" y="19.3125" font-family="Cascadia, Segoe UI Emoji" font-size="20px" fill="#1e1e1e" text-anchor="start" style="white-space: pre;" direction="ltr" dominant-baseline="alphabetic">1. registrationNumber</text><text x="0" y="43.3125" font-family="Cascadia, Segoe UI Emoji" font-size="20px" fill="#1e1e1e" text-anchor="start" style="white-space: pre;" direction="ltr" dominant-baseline="alphabetic">2. type</text><text x="0" y="67.3125" font-family="Cascadia, Segoe UI Emoji" font-size="20px" fill="#1e1e1e" text-anchor="start" style="white-space: pre;" direction="ltr" dominant-baseline="alphabetic">3. phone number</text><text x="0" y="91.3125" font-family="Cascadia, Segoe UI Emoji" font-size="20px" fill="#1e1e1e" text-anchor="start" style="white-space: pre;" direction="ltr" dominant-baseline="alphabetic"></text></g><g stroke-linecap="round" transform="translate(1047.5733032226562 2623.2200826667085) rotate(0 93.86077880859375 74.85235595703125)"><path d="M32 0 C65.9 1.24, 99.93 -0.05, 155.72 0 M32 0 C81.25 -1.04, 130.52 -0.96, 155.72 0 M155.72 0 C175.98 0.51, 186.56 11.16, 187.72 32 M155.72 0 C178.22 0.48, 186.8 10.13, 187.72 32 M187.72 32 C188.7 67.24, 188.31 99.73, 187.72 117.7 M187.72 32 C187.79 62.23, 188.84 94.28, 187.72 117.7 M187.72 117.7 C188.17 140.4, 176.18 149.05, 155.72 149.7 M187.72 117.7 C186.62 136.81, 179.32 151.2, 155.72 149.7 M155.72 149.7 C119.96 149.38, 83.72 147.55, 32 149.7 M155.72 149.7 C107.86 149.1, 60.77 149.52, 32 149.7 M32 149.7 C12.55 150.67, 0.33 140.92, 0 117.7 M32 149.7 C8.67 149.64, 1.48 139.76, 0 117.7 M0 117.7 C1.43 97.59, 1.39 77.18, 0 32 M0 117.7 C-0.55 97.67, -0.68 78.44, 0 32 M0 32 C-1.43 9.73, 11.98 -1.33, 32 0 M0 32 C1.12 8.9, 11.6 0.92, 32 0" stroke="#1e1e1e" stroke-width="2" fill="none"></path></g><g stroke-linecap="round" transform="translate(1270.159912109375 2634.0836080573335) rotate(0 101.2965087890625 79.60479736328125)"><path d="M32 0 C64.83 0.63, 98.21 0.06, 170.59 0 M32 0 C67.65 -0.62, 104.74 -0.67, 170.59 0 M170.59 0 C190 1.19, 202.55 9.6, 202.59 32 M170.59 0 C190.54 -0.47, 204.4 8.71, 202.59 32 M202.59 32 C203.43 54.5, 202.03 75.98, 202.59 127.21 M202.59 32 C201.83 64.54, 203.31 95.45, 202.59 127.21 M202.59 127.21 C202.84 150.42, 190.71 158.31, 170.59 159.21 M202.59 127.21 C203.53 148.47, 194.22 160.19, 170.59 159.21 M170.59 159.21 C124.22 158.09, 77.15 157.09, 32 159.21 M170.59 159.21 C135 159.29, 99.25 159.59, 32 159.21 M32 159.21 C9.71 160.2, 1.26 148.24, 0 127.21 M32 159.21 C8.94 157.38, 0.26 149.38, 0 127.21 M0 127.21 C0.1 99.18, -1.44 70.15, 0 32 M0 127.21 C-0.15 92.35, 0.44 57.74, 0 32 M0 32 C0.76 9.45, 10.27 -0.7, 32 0 M0 32 C1.16 12.78, 10.04 1.1, 32 0" stroke="#1e1e1e" stroke-width="2" fill="none"></path></g><g stroke-linecap="round" transform="translate(1524.3477783203125 2605.62859096749) rotate(0 92.14093017578125 78.50357055664062)"><path d="M32 0 C60.92 1.03, 85.68 -0.35, 152.28 0 M32 0 C67.4 -1.24, 101.52 0.09, 152.28 0 M152.28 0 C175.53 0.9, 185.35 11.7, 184.28 32 M152.28 0 C172.92 -0.21, 185.89 12.68, 184.28 32 M184.28 32 C185.19 52.66, 183.01 73.41, 184.28 125.01 M184.28 32 C184.64 56.29, 184.92 83.02, 184.28 125.01 M184.28 125.01 C183.36 145.09, 171.91 156.46, 152.28 157.01 M184.28 125.01 C186.49 147.89, 171.85 158.71, 152.28 157.01 M152.28 157.01 C124.98 157.32, 94.63 156.26, 32 157.01 M152.28 157.01 C118.83 156.95, 85.96 155.31, 32 157.01 M32 157.01 C8.91 156.88, -0.71 147.68, 0 125.01 M32 157.01 C12.09 154.88, 0.49 147.53, 0 125.01 M0 125.01 C-2.09 92.97, -2.03 60.81, 0 32 M0 125.01 C0.88 99.47, -0.1 75.28, 0 32 M0 32 C-0.99 10.44, 9.82 0.99, 32 0 M0 32 C-0.13 8.77, 9.75 -0.61, 32 0" stroke="#1e1e1e" stroke-width="2" fill="none"></path></g><g stroke-linecap="round" transform="translate(1498.8922119140625 2374.707509424521) rotate(0 96.93621826171875 89.09930419921875)"><path d="M32 0 C61.43 -0.75, 94.21 1.57, 161.87 0 M32 0 C60.09 1.26, 88.21 0.63, 161.87 0 M161.87 0 C181.76 1.57, 194.23 12.04, 193.87 32 M161.87 0 C181.23 -1.08, 195.98 11.18, 193.87 32 M193.87 32 C193.87 66.94, 194.14 98.67, 193.87 146.2 M193.87 32 C195.59 64.48, 194.1 95.8, 193.87 146.2 M193.87 146.2 C193.81 167.44, 184.64 176.6, 161.87 178.2 M193.87 146.2 C195.45 169.2, 185.42 179.49, 161.87 178.2 M161.87 178.2 C134.35 179.94, 106.37 179.55, 32 178.2 M161.87 178.2 C132.88 179.08, 105.24 179.19, 32 178.2 M32 178.2 C10.62 177.24, -1.14 168.99, 0 146.2 M32 178.2 C8.53 177.18, -0.12 165.4, 0 146.2 M0 146.2 C-0.16 117.59, 1.66 91.24, 0 32 M0 146.2 C1.7 120.67, 1.77 95.95, 0 32 M0 32 C0.05 8.72, 10.19 1.4, 32 0 M0 32 C-2.25 9.06, 9.25 -0.36, 32 0" stroke="#1e1e1e" stroke-width="2" fill="none"></path></g><g transform="translate(1103.9327392578125 2650.656972315146) rotate(0 17.578125 12)"><text x="0" y="19.3125" font-family="Cascadia, Segoe UI Emoji" font-size="20px" fill="#1e1e1e" text-anchor="start" style="white-space: pre;" direction="ltr" dominant-baseline="alphabetic">Car</text></g><g transform="translate(1305.9327392578125 2645.656972315146) rotate(0 17.578125 12)"><text x="0" y="19.3125" font-family="Cascadia, Segoe UI Emoji" font-size="20px" fill="#1e1e1e" text-anchor="start" style="white-space: pre;" direction="ltr" dominant-baseline="alphabetic">Bus</text></g><g transform="translate(1572.9327392578125 2645.656972315146) rotate(0 64.453125 12)"><text x="0" y="19.3125" font-family="Cascadia, Segoe UI Emoji" font-size="20px" fill="#1e1e1e" text-anchor="start" style="white-space: pre;" direction="ltr" dominant-baseline="alphabetic">ElectricCar</text></g><g transform="translate(1560.9327392578125 2384.656972315146) rotate(0 58.59375 12)"><text x="0" y="19.3125" font-family="Cascadia, Segoe UI Emoji" font-size="20px" fill="#1e1e1e" text-anchor="start" style="white-space: pre;" direction="ltr" dominant-baseline="alphabetic">MotorCycle</text></g><g stroke-linecap="round"><g transform="translate(1141.8172607421875 2606.6318868659273) rotate(0 0 -25.548721313476562)"><path d="M0.75 -0.05 C0.82 -8.56, 0.87 -42.96, 0.79 -51.5 M-0.31 -1.11 C-0.36 -9.43, 0.26 -42.02, 0.25 -50.17" stroke="#1e1e1e" stroke-width="2" fill="none"></path></g><g transform="translate(1141.8172607421875 2606.6318868659273) rotate(0 0 -25.548721313476562)"><path d="M8.57 -26.59 C5.82 -33.03, 2.47 -41.72, 0.25 -50.17 M8.57 -26.59 C5.56 -34.24, 3.89 -39.4, 0.25 -50.17" stroke="#1e1e1e" stroke-width="2" fill="none"></path></g><g transform="translate(1141.8172607421875 2606.6318868659273) rotate(0 0 -25.548721313476562)"><path d="M-8.53 -26.76 C-5.62 -33.25, -3.31 -41.89, 0.25 -50.17 M-8.53 -26.76 C-6.62 -34.4, -3.36 -39.51, 0.25 -50.17" stroke="#1e1e1e" stroke-width="2" fill="none"></path></g></g><mask></mask><g stroke-linecap="round"><g transform="translate(1351.5540161132812 2601.957265283896) rotate(0 -39.376434326171875 -28.560287475585938)"><path d="M1.15 -0.03 C-12.02 -9.42, -65.64 -47.74, -78.78 -57.19 M0.3 -1.1 C-13.06 -10.21, -66.71 -46.06, -79.74 -55.69" stroke="#1e1e1e" stroke-width="2" fill="none"></path></g><g transform="translate(1351.5540161132812 2601.957265283896) rotate(0 -39.376434326171875 -28.560287475585938)"><path d="M-55.58 -49.25 C-63.36 -51.13, -71.18 -51.33, -79.74 -55.69 M-55.58 -49.25 C-63.21 -51.74, -70.95 -54.35, -79.74 -55.69" stroke="#1e1e1e" stroke-width="2" fill="none"></path></g><g transform="translate(1351.5540161132812 2601.957265283896) rotate(0 -39.376434326171875 -28.560287475585938)"><path d="M-65.37 -35.23 C-69.9 -41.71, -74.57 -46.42, -79.74 -55.69 M-65.37 -35.23 C-69.83 -42.38, -74.32 -49.64, -79.74 -55.69" stroke="#1e1e1e" stroke-width="2" fill="none"></path></g></g><mask></mask><g stroke-linecap="round"><g transform="translate(1500.5808715820312 2600.1143087409273) rotate(0 -49.255462646484375 -23.98193359375)"><path d="M0.03 -1.09 C-16.35 -8.72, -81.3 -39.04, -97.66 -46.93 M-1.41 0.95 C-17.92 -6.89, -81.95 -40.46, -98.16 -48.52" stroke="#1e1e1e" stroke-width="2" fill="none"></path></g><g transform="translate(1500.5808715820312 2600.1143087409273) rotate(0 -49.255462646484375 -23.98193359375)"><path d="M-73.35 -45.43 C-83.85 -45.08, -89.03 -46.95, -98.16 -48.52 M-73.35 -45.43 C-79.35 -47.09, -85.65 -46.74, -98.16 -48.52" stroke="#1e1e1e" stroke-width="2" fill="none"></path></g><g transform="translate(1500.5808715820312 2600.1143087409273) rotate(0 -49.255462646484375 -23.98193359375)"><path d="M-81.14 -30.2 C-88.76 -35.21, -91.2 -42.42, -98.16 -48.52 M-81.14 -30.2 C-85.07 -35.78, -89.35 -39.39, -98.16 -48.52" stroke="#1e1e1e" stroke-width="2" fill="none"></path></g></g><mask></mask><g stroke-linecap="round"><g transform="translate(1480.3151245117188 2450.3307088874117) rotate(0 -22.824493408203125 0.0686187744140625)"><path d="M0.51 -0.15 C-7.12 -0.21, -37.84 -0.41, -45.6 -0.31 M0.11 -0.7 C-7.6 -0.71, -38.49 0.12, -46 0.17" stroke="#1e1e1e" stroke-width="2" fill="none"></path></g><g transform="translate(1480.3151245117188 2450.3307088874117) rotate(0 -22.824493408203125 0.0686187744140625)"><path d="M-24.7 -8.02 C-32.12 -5.08, -39.82 -3.15, -46 0.17 M-24.7 -8.02 C-32.72 -5.27, -40.54 -2.38, -46 0.17" stroke="#1e1e1e" stroke-width="2" fill="none"></path></g><g transform="translate(1480.3151245117188 2450.3307088874117) rotate(0 -22.824493408203125 0.0686187744140625)"><path d="M-24.42 7.59 C-31.95 5.29, -39.74 1.97, -46 0.17 M-24.42 7.59 C-32.53 4.7, -40.44 1.96, -46 0.17" stroke="#1e1e1e" stroke-width="2" fill="none"></path></g></g><mask></mask><g stroke-linecap="round"><g transform="translate(794.7579956054688 2462.580983545615) rotate(0 136.65194702148438 -0.972259521484375)"><path d="M0.07 0.66 C45.68 0.42, 226.83 -0.54, 272.51 -1.01 M-1.36 -0.05 C44.74 -0.64, 228.94 -2.49, 274.8 -2.64" stroke="#1e1e1e" stroke-width="2" fill="none"></path></g><g transform="translate(794.7579956054688 2462.580983545615) rotate(0 136.65194702148438 -0.972259521484375)"><path d="M251.37 6.08 C257.19 2.97, 262.41 3.9, 274.8 -2.64 M251.37 6.08 C257.55 2.87, 264.93 1.5, 274.8 -2.64" stroke="#1e1e1e" stroke-width="2" fill="none"></path></g><g transform="translate(794.7579956054688 2462.580983545615) rotate(0 136.65194702148438 -0.972259521484375)"><path d="M251.25 -11.02 C257.14 -10.66, 262.39 -6.26, 274.8 -2.64 M251.25 -11.02 C257.35 -9.39, 264.77 -5.92, 274.8 -2.64" stroke="#1e1e1e" stroke-width="2" fill="none"></path></g></g><mask></mask><g stroke-linecap="round" transform="translate(470.3393950486944 1522.8414852411195) rotate(0 265.4557591844909 151.0417222442696)"><path d="M32 0 C210.25 0.38, 389.78 -0.14, 498.91 0 M32 0 C202.66 -1.1, 373.2 -0.86, 498.91 0 M498.91 0 C522.08 1.72, 529.97 9.91, 530.91 32 M498.91 0 C518.69 0.7, 530.79 8.59, 530.91 32 M530.91 32 C528.59 94.09, 529.17 154.21, 530.91 270.08 M530.91 32 C530.32 92.58, 530.25 151.49, 530.91 270.08 M530.91 270.08 C531.91 292.98, 521.34 303.96, 498.91 302.08 M530.91 270.08 C531.73 290.61, 520.73 303.14, 498.91 302.08 M498.91 302.08 C326.54 300.58, 152.52 300.7, 32 302.08 M498.91 302.08 C354.37 300.75, 210.32 300.31, 32 302.08 M32 302.08 C10.33 301.13, 0.71 289.58, 0 270.08 M32 302.08 C8.67 300.36, -0.74 291.02, 0 270.08 M0 270.08 C0.56 185.13, -0.99 97.15, 0 32 M0 270.08 C2.5 200.58, 2.2 131.64, 0 32 M0 32 C-0.36 11.26, 11.89 -0.75, 32 0 M0 32 C-0.89 10.64, 8.71 -1.5, 32 0" stroke="#1e1e1e" stroke-width="2" fill="none"></path></g><g transform="translate(594.9886437668216 1538.003508203642) rotate(0 70.3125 12)"><text x="0" y="19.3125" font-family="Cascadia, Segoe UI Emoji" font-size="20px" fill="#1e1e1e" text-anchor="start" style="white-space: pre;" direction="ltr" dominant-baseline="alphabetic">ParkingFloor</text></g><g transform="translate(503.89700054710386 1575.410959297933) rotate(0 181.640625 48.000000000000014)"><text x="0" y="19.3125" font-family="Cascadia, Segoe UI Emoji" font-size="20px" fill="#1e1e1e" text-anchor="start" style="white-space: pre;" direction="ltr" dominant-baseline="alphabetic">parkingSlots: List&lt;ParkingSlot&gt;</text><text x="0" y="43.3125" font-family="Cascadia, Segoe UI Emoji" font-size="20px" fill="#1e1e1e" text-anchor="start" style="white-space: pre;" direction="ltr" dominant-baseline="alphabetic">floorId:Int</text><text x="0" y="67.3125" font-family="Cascadia, Segoe UI Emoji" font-size="20px" fill="#1e1e1e" text-anchor="start" style="white-space: pre;" direction="ltr" dominant-baseline="alphabetic">displayBoard:DisplayBoard</text><text x="0" y="91.3125" font-family="Cascadia, Segoe UI Emoji" font-size="20px" fill="#1e1e1e" text-anchor="start" style="white-space: pre;" direction="ltr" dominant-baseline="alphabetic"></text></g><g stroke-linecap="round" transform="translate(583.1426231549938 1927.685625924798) rotate(0 208.0491471813104 113.5689825285171)"><path d="M32 0 C151.94 1.72, 274.37 1.24, 384.1 0 M32 0 C166.35 -2.05, 299.25 -1.9, 384.1 0 M384.1 0 C407.01 -1.28, 417.15 11.48, 416.1 32 M384.1 0 C406.77 -1.67, 414.61 12.06, 416.1 32 M416.1 32 C414.88 82.82, 414.67 132.21, 416.1 195.14 M416.1 32 C415.04 85.17, 413.97 138.28, 416.1 195.14 M416.1 195.14 C414.9 217.03, 405.97 227.72, 384.1 227.14 M416.1 195.14 C417.73 215.59, 407.57 227.93, 384.1 227.14 M384.1 227.14 C289.3 229.3, 193.43 228, 32 227.14 M384.1 227.14 C308.65 224.82, 234.21 225.09, 32 227.14 M32 227.14 C12.45 227.15, 0.81 217.95, 0 195.14 M32 227.14 C11.36 225.16, 1.2 214.92, 0 195.14 M0 195.14 C-0.52 140.8, -2.05 86.81, 0 32 M0 195.14 C-1 131.21, -1.2 66.59, 0 32 M0 32 C1.03 12.55, 9.16 -1.53, 32 0 M0 32 C1.63 10.49, 9.47 1.76, 32 0" stroke="#1e1e1e" stroke-width="2" fill="none"></path></g><g transform="translate(736.7638943150044 1957.2099215566259) rotate(0 70.3125 12)"><text x="0" y="19.3125" font-family="Cascadia, Segoe UI Emoji" font-size="20px" fill="#1e1e1e" text-anchor="start" style="white-space: pre;" direction="ltr" dominant-baseline="alphabetic">DisplayBoard</text></g><g stroke-linecap="round"><g transform="translate(694.4264089784309 1897.7133840381566) rotate(0 13.475382317659069 -24.252970464421537)"><path d="M-0.82 -1.16 C3.4 -9.54, 21.63 -41.38, 26.25 -49.25 M0.95 0.85 C5.48 -6.88, 24.41 -40.13, 28.6 -48.1" stroke="#1e1e1e" stroke-width="2" fill="none"></path></g><g transform="translate(694.4264089784309 1897.7133840381566) rotate(0 13.475382317659069 -24.252970464421537)"><path d="M24.74 -23.4 C24.05 -33.87, 26.2 -42.15, 28.6 -48.1 M24.74 -23.4 C25.15 -30.64, 26.97 -37.83, 28.6 -48.1" stroke="#1e1e1e" stroke-width="2" fill="none"></path></g><g transform="translate(694.4264089784309 1897.7133840381566) rotate(0 13.475382317659069 -24.252970464421537)"><path d="M9.77 -31.66 C14.81 -38.91, 22.61 -44.06, 28.6 -48.1 M9.77 -31.66 C14.77 -36.45, 21.23 -41.07, 28.6 -48.1" stroke="#1e1e1e" stroke-width="2" fill="none"></path></g></g><mask></mask><g stroke-linecap="round"><g transform="translate(476.5165790760626 2299.0960013908143) rotate(0 44.071227285456644 -226.89508552441987)"><path d="M1.14 0.6 C15.55 -75.22, 72.58 -378, 87.13 -453.92 M0.29 -0.13 C15 -75.84, 74.71 -376.78, 89.31 -452.46" stroke="#1e1e1e" stroke-width="2" fill="none"></path></g><g transform="translate(476.5165790760626 2299.0960013908143) rotate(0 44.071227285456644 -226.89508552441987)"><path d="M93.18 -427.76 C92.6 -438.21, 90 -444.81, 89.31 -452.46 M93.18 -427.76 C92.02 -432.48, 92.24 -438.82, 89.31 -452.46" stroke="#1e1e1e" stroke-width="2" fill="none"></path></g><g transform="translate(476.5165790760626 2299.0960013908143) rotate(0 44.071227285456644 -226.89508552441987)"><path d="M76.4 -431.05 C81.83 -440.49, 85.21 -445.92, 89.31 -452.46 M76.4 -431.05 C78.68 -434.97, 82.34 -440.64, 89.31 -452.46" stroke="#1e1e1e" stroke-width="2" fill="none"></path></g></g><mask></mask><g stroke-linecap="round"><g transform="translate(560.4019438232667 1594.9455545374728) rotate(0 0 0)"><path d="M-0.31 -0.16 C-0.25 -0.17, 0 -0.28, 0.09 -0.31 M0.17 0.53 C0.22 0.57, -0.13 0.1, -0.14 -0.01" stroke="#1e1e1e" stroke-width="2" fill="none"></path></g><g transform="translate(560.4019438232667 1594.9455545374728) rotate(0 0 0)"><path d="M-0.14 -0.01 C-0.14 -0.01, -0.14 -0.01, -0.14 -0.01 M-0.14 -0.01 C-0.14 -0.01, -0.14 -0.01, -0.14 -0.01" stroke="#1e1e1e" stroke-width="2" fill="none"></path></g><g transform="translate(560.4019438232667 1594.9455545374728) rotate(0 0 0)"><path d="M-0.14 -0.01 C-0.14 -0.01, -0.14 -0.01, -0.14 -0.01 M-0.14 -0.01 C-0.14 -0.01, -0.14 -0.01, -0.14 -0.01" stroke="#1e1e1e" stroke-width="2" fill="none"></path></g></g><mask></mask><g stroke-linecap="round"><g transform="translate(479.9184512697227 1662.9932787210546) rotate(0 208.45773069985052 -1.2376318803655977)"><path d="M0.21 -0.79 C69.73 -0.92, 348.23 -1.32, 417.53 -1.73 M-1.13 1.41 C68.24 1.02, 346.97 -2.84, 416.91 -3.46" stroke="#1e1e1e" stroke-width="2" fill="none"></path></g></g><mask></mask><g transform="translate(504.4428659866219 1692.4042480565438) rotate(0 234.375 84)"><text x="0" y="19.3125" font-family="Cascadia, Segoe UI Emoji" font-size="20px" fill="#1e1e1e" text-anchor="start" style="white-space: pre;" direction="ltr" dominant-baseline="alphabetic">getAvailableStots(): List&lt;ParkingSlot&gt;</text><text x="0" y="43.3125" font-family="Cascadia, Segoe UI Emoji" font-size="20px" fill="#1e1e1e" text-anchor="start" style="white-space: pre;" direction="ltr" dominant-baseline="alphabetic">getAllSlots():List&lt;ParkingSlot&gt;</text><text x="0" y="67.3125" font-family="Cascadia, Segoe UI Emoji" font-size="20px" fill="#1e1e1e" text-anchor="start" style="white-space: pre;" direction="ltr" dominant-baseline="alphabetic">getDisplayBoard()</text><text x="0" y="91.3125" font-family="Cascadia, Segoe UI Emoji" font-size="20px" fill="#1e1e1e" text-anchor="start" style="white-space: pre;" direction="ltr" dominant-baseline="alphabetic">getSlotTypeForVehicle(vehicle:Vehicle): </text><text x="0" y="115.3125" font-family="Cascadia, Segoe UI Emoji" font-size="20px" fill="#1e1e1e" text-anchor="start" style="white-space: pre;" direction="ltr" dominant-baseline="alphabetic"></text><text x="0" y="139.3125" font-family="Cascadia, Segoe UI Emoji" font-size="20px" fill="#1e1e1e" text-anchor="start" style="white-space: pre;" direction="ltr" dominant-baseline="alphabetic"></text><text x="0" y="163.3125" font-family="Cascadia, Segoe UI Emoji" font-size="20px" fill="#1e1e1e" text-anchor="start" style="white-space: pre;" direction="ltr" dominant-baseline="alphabetic"></text></g><g stroke-linecap="round" transform="translate(1115.096259246499 558.3461434093964) rotate(0 307.5525345984762 207.02833781744152)"><path d="M32 0 C179.23 -2.13, 327.79 -2, 583.11 0 M32 0 C245.87 0.91, 459.87 0.71, 583.11 0 M583.11 0 C603.19 1.63, 614.58 12.59, 615.11 32 M583.11 0 C604.61 -1.1, 614.54 11.81, 615.11 32 M615.11 32 C614.06 128.61, 613.4 227.66, 615.11 382.06 M615.11 32 C616.39 143.63, 616.24 255.41, 615.11 382.06 M615.11 382.06 C616.57 403.16, 604.6 413.43, 583.11 414.06 M615.11 382.06 C615.24 405.14, 606.26 415.5, 583.11 414.06 M583.11 414.06 C429.93 413.58, 276.39 414.2, 32 414.06 M583.11 414.06 C468.31 412.14, 353.45 412.6, 32 414.06 M32 414.06 C9.6 412.37, 0.72 405.21, 0 382.06 M32 414.06 C11.62 414.85, 0.99 401.28, 0 382.06 M0 382.06 C0.05 301.3, -1.03 222.45, 0 32 M0 382.06 C-0.72 260.74, -1.34 139.35, 0 32 M0 32 C-0.82 12.25, 8.86 -1.14, 32 0 M0 32 C0.34 8.92, 8.62 -1.09, 32 0" stroke="#1e1e1e" stroke-width="2" fill="none"></path></g><g transform="translate(1369.3378957827315 586.12618735807) rotate(0 58.59375 12)"><text x="0" y="19.3125" font-family="Cascadia, Segoe UI Emoji" font-size="20px" fill="#1e1e1e" text-anchor="start" style="white-space: pre;" direction="ltr" dominant-baseline="alphabetic">ParkingLot</text></g><g transform="translate(1160.785950096489 640.6523583331411) rotate(0 193.359375 48)"><text x="0" y="19.3125" font-family="Cascadia, Segoe UI Emoji" font-size="20px" fill="#1e1e1e" text-anchor="start" style="white-space: pre;" direction="ltr" dominant-baseline="alphabetic">parkingFloors: List&lt;ParkingFloor&gt;</text><text x="0" y="43.3125" font-family="Cascadia, Segoe UI Emoji" font-size="20px" fill="#1e1e1e" text-anchor="start" style="white-space: pre;" direction="ltr" dominant-baseline="alphabetic">existPoints: List&lt;EntryPoint&gt;</text><text x="0" y="67.3125" font-family="Cascadia, Segoe UI Emoji" font-size="20px" fill="#1e1e1e" text-anchor="start" style="white-space: pre;" direction="ltr" dominant-baseline="alphabetic">exitPoints: List&lt;ExistPoint&gt;</text><text x="0" y="91.3125" font-family="Cascadia, Segoe UI Emoji" font-size="20px" fill="#1e1e1e" text-anchor="start" style="white-space: pre;" direction="ltr" dominant-baseline="alphabetic"></text></g><g stroke-linecap="round" transform="translate(998.6868456544171 1086.1493719620325) rotate(0 250.28801898005509 151.07932683609587)"><path d="M32 0 C157.44 -1.05, 281.31 0.51, 468.58 0 M32 0 C122.77 -1.08, 213.42 -0.71, 468.58 0 M468.58 0 C488.66 -1.24, 499 9.02, 500.58 32 M468.58 0 C488.22 0.95, 498.96 12.83, 500.58 32 M500.58 32 C501.53 105.17, 501.28 174.55, 500.58 270.16 M500.58 32 C497.92 100.82, 499.06 169.05, 500.58 270.16 M500.58 270.16 C502.01 292.57, 488.87 301.06, 468.58 302.16 M500.58 270.16 C502.78 293.56, 491.67 303.67, 468.58 302.16 M468.58 302.16 C329 299.61, 190.66 301.32, 32 302.16 M468.58 302.16 C369.12 300.22, 269.08 300.62, 32 302.16 M32 302.16 C11.73 302.23, 0.38 292.12, 0 270.16 M32 302.16 C10.6 300.42, 0.58 291.72, 0 270.16 M0 270.16 C1.25 180.76, 1.65 90.43, 0 32 M0 270.16 C-2.1 179.5, -1.17 87.32, 0 32 M0 32 C0.05 9.29, 9.45 2, 32 0 M0 32 C0.39 12.96, 9.28 1.58, 32 0" stroke="#1e1e1e" stroke-width="2" fill="none"></path></g><g stroke-linecap="round" transform="translate(1507.2302226891973 1096.9509919758016) rotate(0 271.55159503831953 143.5151921662875)"><path d="M32 0 C192.36 -0.29, 352.95 -0.14, 511.1 0 M32 0 C185.85 0.61, 340.23 0.3, 511.1 0 M511.1 0 C531.22 1.54, 544.3 8.9, 543.1 32 M511.1 0 C532.81 1.29, 541.92 8.38, 543.1 32 M543.1 32 C545.96 117.26, 545.14 203.85, 543.1 255.03 M543.1 32 C541.94 114.1, 540.77 198.59, 543.1 255.03 M543.1 255.03 C544.93 274.95, 534.3 285.11, 511.1 287.03 M543.1 255.03 C545.25 276.3, 531.79 284.87, 511.1 287.03 M511.1 287.03 C378.78 288.56, 247.29 287.78, 32 287.03 M511.1 287.03 C391.58 285.31, 270.98 285.73, 32 287.03 M32 287.03 C9.39 286.83, 1.25 277.37, 0 255.03 M32 287.03 C12.95 286.33, 0.66 275.04, 0 255.03 M0 255.03 C-0.28 194.33, -0.14 131.06, 0 32 M0 255.03 C1.53 189.45, 1.35 124.48, 0 32 M0 32 C-0.87 9.65, 10.24 1.45, 32 0 M0 32 C0.66 8.9, 11.79 1.94, 32 0" stroke="#1e1e1e" stroke-width="2" fill="none"></path></g><g transform="translate(1097.4575981389214 1121.8772527055155) rotate(0 58.59375 12)"><text x="0" y="19.3125" font-family="Cascadia, Segoe UI Emoji" font-size="20px" fill="#1e1e1e" text-anchor="start" style="white-space: pre;" direction="ltr" dominant-baseline="alphabetic">EntryPoint</text></g><g transform="translate(1669.8458052368662 1106.4732708545419) rotate(0 58.59375 12)"><text x="0" y="19.3125" font-family="Cascadia, Segoe UI Emoji" font-size="20px" fill="#1e1e1e" text-anchor="start" style="white-space: pre;" direction="ltr" dominant-baseline="alphabetic">ExistPoint</text></g><g transform="translate(1037.430620702689 1174.6282328767497) rotate(0 41.015625 24)"><text x="0" y="19.3125" font-family="Cascadia, Segoe UI Emoji" font-size="20px" fill="#1e1e1e" text-anchor="start" style="white-space: pre;" direction="ltr" dominant-baseline="alphabetic">id: Int</text><text x="0" y="43.3125" font-family="Cascadia, Segoe UI Emoji" font-size="20px" fill="#1e1e1e" text-anchor="start" style="white-space: pre;" direction="ltr" dominant-baseline="alphabetic"></text></g><g stroke-linecap="round" transform="translate(1212.1480363507405 1513.8222001634422) rotate(0 292.4166856756465 311.7630379310608)"><path d="M32 0 C215.81 0.09, 400.5 -1.06, 552.83 0 M32 0 C152.24 -0.33, 272.42 -0.3, 552.83 0 M552.83 0 C572.71 0.81, 584.09 11.4, 584.83 32 M552.83 0 C576.08 -1.62, 583.48 9.19, 584.83 32 M584.83 32 C586.73 208.76, 586.52 384.17, 584.83 591.53 M584.83 32 C584.44 224.46, 584.27 417.49, 584.83 591.53 M584.83 591.53 C583.42 611.5, 575.13 622.19, 552.83 623.53 M584.83 591.53 C584.1 612.33, 573.54 621.87, 552.83 623.53 M552.83 623.53 C374.94 622.44, 197.89 622.69, 32 623.53 M552.83 623.53 C429.59 621.46, 307.38 621.64, 32 623.53 M32 623.53 C10.64 622.25, -1.1 613.96, 0 591.53 M32 623.53 C10.25 625.41, -2.01 614.9, 0 591.53 M0 591.53 C0.37 418.91, -0.72 248.06, 0 32 M0 591.53 C2.03 466.54, 1.84 341.42, 0 32 M0 32 C-1.08 10.35, 11.52 -1.64, 32 0 M0 32 C-0.27 10.65, 12.88 -0.79, 32 0" stroke="#1e1e1e" stroke-width="2" fill="none"></path></g><g transform="translate(1375.7644935250887 1551.1610913403872) rotate(0 76.171875 12)"><text x="0" y="19.3125" font-family="Cascadia, Segoe UI Emoji" font-size="20px" fill="#1e1e1e" text-anchor="start" style="white-space: pre;" direction="ltr" dominant-baseline="alphabetic">ParkingTicket</text></g><g transform="translate(1244.7965427551276 1603.9120715116214) rotate(0 134.765625 120)"><text x="0" y="19.3125" font-family="Cascadia, Segoe UI Emoji" font-size="20px" fill="#1e1e1e" text-anchor="start" style="white-space: pre;" direction="ltr" dominant-baseline="alphabetic">ticketId:Number</text><text x="0" y="43.3125" font-family="Cascadia, Segoe UI Emoji" font-size="20px" fill="#1e1e1e" text-anchor="start" style="white-space: pre;" direction="ltr" dominant-baseline="alphabetic">parkingSlotId:Number</text><text x="0" y="67.3125" font-family="Cascadia, Segoe UI Emoji" font-size="20px" fill="#1e1e1e" text-anchor="start" style="white-space: pre;" direction="ltr" dominant-baseline="alphabetic">parkingFoorId:Number</text><text x="0" y="91.3125" font-family="Cascadia, Segoe UI Emoji" font-size="20px" fill="#1e1e1e" text-anchor="start" style="white-space: pre;" direction="ltr" dominant-baseline="alphabetic">vehicleType:VehicleType</text><text x="0" y="115.3125" font-family="Cascadia, Segoe UI Emoji" font-size="20px" fill="#1e1e1e" text-anchor="start" style="white-space: pre;" direction="ltr" dominant-baseline="alphabetic">startTime:DateTime</text><text x="0" y="139.3125" font-family="Cascadia, Segoe UI Emoji" font-size="20px" fill="#1e1e1e" text-anchor="start" style="white-space: pre;" direction="ltr" dominant-baseline="alphabetic">endTime:DateTime</text><text x="0" y="163.3125" font-family="Cascadia, Segoe UI Emoji" font-size="20px" fill="#1e1e1e" text-anchor="start" style="white-space: pre;" direction="ltr" dominant-baseline="alphabetic">amount: Number</text><text x="0" y="187.3125" font-family="Cascadia, Segoe UI Emoji" font-size="20px" fill="#1e1e1e" text-anchor="start" style="white-space: pre;" direction="ltr" dominant-baseline="alphabetic"></text><text x="0" y="211.3125" font-family="Cascadia, Segoe UI Emoji" font-size="20px" fill="#1e1e1e" text-anchor="start" style="white-space: pre;" direction="ltr" dominant-baseline="alphabetic"></text><text x="0" y="235.3125" font-family="Cascadia, Segoe UI Emoji" font-size="20px" fill="#1e1e1e" text-anchor="start" style="white-space: pre;" direction="ltr" dominant-baseline="alphabetic"></text></g><g stroke-linecap="round"><g transform="translate(1353.614313252571 1468.1887875682232) rotate(0 -32.81849388124169 -27.17410663673462)"><path d="M-0.94 -0.71 C-11.72 -9.82, -55.12 -45.85, -65.71 -54.69 M0.77 1.53 C-10.09 -7.4, -55.8 -43.77, -66.7 -53.33" stroke="#1e1e1e" stroke-width="2" fill="none"></path></g><g transform="translate(1353.614313252571 1468.1887875682232) rotate(0 -32.81849388124169 -27.17410663673462)"><path d="M-43.16 -44.91 C-49.36 -47.02, -53.76 -46.76, -66.7 -53.33 M-43.16 -44.91 C-52.06 -48.26, -60.47 -50.88, -66.7 -53.33" stroke="#1e1e1e" stroke-width="2" fill="none"></path></g><g transform="translate(1353.614313252571 1468.1887875682232) rotate(0 -32.81849388124169 -27.17410663673462)"><path d="M-54.08 -31.75 C-57.95 -36.58, -60.02 -39.12, -66.7 -53.33 M-54.08 -31.75 C-59.16 -39.7, -63.77 -46.9, -66.7 -53.33" stroke="#1e1e1e" stroke-width="2" fill="none"></path></g></g><mask></mask><g stroke-linecap="round"><g transform="translate(1726.0477885695002 1416.8708631432032) rotate(0 0.6345318349020772 36.85134781425907)"><path d="M-0.22 -0.08 C-0.13 12.17, 1.15 61.9, 1.5 74.03 M-1.8 -1.17 C-1.93 10.66, 0.13 59.64, 0.67 72.08" stroke="#1e1e1e" stroke-width="2" fill="none"></path></g><g transform="translate(1726.0477885695002 1416.8708631432032) rotate(0 0.6345318349020772 36.85134781425907)"><path d="M-8.85 48.97 C-5.27 58.17, -0.96 67.64, 0.67 72.08 M-8.85 48.97 C-6.42 53.49, -5.25 59.37, 0.67 72.08" stroke="#1e1e1e" stroke-width="2" fill="none"></path></g><g transform="translate(1726.0477885695002 1416.8708631432032) rotate(0 0.6345318349020772 36.85134781425907)"><path d="M8.23 48.25 C5.31 57.7, 3.13 67.44, 0.67 72.08 M8.23 48.25 C6.98 52.76, 4.46 58.8, 0.67 72.08" stroke="#1e1e1e" stroke-width="2" fill="none"></path></g></g><mask></mask><g stroke-linecap="round"><g transform="translate(1078.0630064302045 1234.6845203605576) rotate(0 0.4626324554939174 -0.46266021122073653)"><path d="M-0.04 -0.24 C0.2 -0.38, 1.08 -1.12, 1.24 -1.2 M-0.49 0.4 C-0.24 0.33, 0.93 -0.61, 1.12 -0.89" stroke="#1e1e1e" stroke-width="2" fill="none"></path></g><g transform="translate(1078.0630064302045 1234.6845203605576) rotate(0 0.4626324554939174 -0.46266021122073653)"><path d="M0.84 -0.29 C0.89 -0.41, 0.95 -0.57, 1.12 -0.89 M0.84 -0.29 C0.95 -0.52, 1.04 -0.72, 1.12 -0.89" stroke="#1e1e1e" stroke-width="2" fill="none"></path></g><g transform="translate(1078.0630064302045 1234.6845203605576) rotate(0 0.4626324554939174 -0.46266021122073653)"><path d="M0.52 -0.61 C0.65 -0.65, 0.78 -0.74, 1.12 -0.89 M0.52 -0.61 C0.74 -0.72, 0.95 -0.81, 1.12 -0.89" stroke="#1e1e1e" stroke-width="2" fill="none"></path></g></g><mask></mask><g stroke-linecap="round"><g transform="translate(1215.2588982184966 1807.2773941157118) rotate(0 292.6849170201325 -2.9985621968336886)"><path d="M0.96 -0.77 C98.39 -1.8, 487.5 -6, 584.73 -6.87 M0 1.44 C97.81 0.59, 489.32 -4.77, 587.11 -5.79" stroke="#1e1e1e" stroke-width="2" fill="none"></path></g></g><mask></mask><g transform="translate(1250.2535407038763 1884.037966214038) rotate(0 134.765625 24)"><text x="0" y="19.3125" font-family="Cascadia, Segoe UI Emoji" font-size="20px" fill="#1e1e1e" text-anchor="start" style="white-space: pre;" direction="ltr" dominant-baseline="alphabetic">... getter/setter above</text><text x="0" y="43.3125" font-family="Cascadia, Segoe UI Emoji" font-size="20px" fill="#1e1e1e" text-anchor="start" style="white-space: pre;" direction="ltr" dominant-baseline="alphabetic"></text></g><g stroke-linecap="round"><g transform="translate(1001.8927431309811 1224.1934662291283) rotate(0 200.98599067375955 -0.9216289107675948)"><path d="M-0.43 -0.19 C66.62 -0.46, 335.29 -0.36, 402.34 -0.66 M1.55 -1.34 C68.47 -1.99, 334.99 -2.25, 401.59 -2.16" stroke="#1e1e1e" stroke-width="2" fill="none"></path></g></g><mask></mask><g transform="translate(1017.187732679518 1245.5692062104777) rotate(0 193.2424272277862 24)"><text x="0" y="19.3125" font-family="Cascadia, Segoe UI Emoji" font-size="20px" fill="#1e1e1e" text-anchor="start" style="white-space: pre;" direction="ltr" dominant-baseline="alphabetic">getParkingTicket(vehicle:Vehicle</text><text x="0" y="43.3125" font-family="Cascadia, Segoe UI Emoji" font-size="20px" fill="#1e1e1e" text-anchor="start" style="white-space: pre;" direction="ltr" dominant-baseline="alphabetic">):ParkingTicket </text></g><g transform="translate(1527.7162018472668 1141.6463939030634) rotate(0 35.15625 24)"><text x="0" y="19.3125" font-family="Cascadia, Segoe UI Emoji" font-size="20px" fill="#1e1e1e" text-anchor="start" style="white-space: pre;" direction="ltr" dominant-baseline="alphabetic">id:Int</text><text x="0" y="43.3125" font-family="Cascadia, Segoe UI Emoji" font-size="20px" fill="#1e1e1e" text-anchor="start" style="white-space: pre;" direction="ltr" dominant-baseline="alphabetic"></text></g><g stroke-linecap="round"><g transform="translate(1534.9516999078 1193.15515352643) rotate(0 175.4022418478778 0.007884434738969048)"><path d="M-0.86 -1.04 C57.33 -1.21, 291.24 -0.89, 350.03 -0.84 M0.89 1.03 C59.38 0.97, 293.87 0.4, 352.34 0.24" stroke="#1e1e1e" stroke-width="2" fill="none"></path></g></g><mask></mask><g transform="translate(1518.521996953073 1212.4417715883556) rotate(0 257.8125 48)"><text x="0" y="19.3125" font-family="Cascadia, Segoe UI Emoji" font-size="20px" fill="#1e1e1e" text-anchor="start" style="white-space: pre;" direction="ltr" dominant-baseline="alphabetic">checkOut(ticket:ParkingTicket):ParkingTicket</text><text x="0" y="43.3125" font-family="Cascadia, Segoe UI Emoji" font-size="20px" fill="#1e1e1e" text-anchor="start" style="white-space: pre;" direction="ltr" dominant-baseline="alphabetic">- calculateDuarationInHours(ticket): Number</text><text x="0" y="67.3125" font-family="Cascadia, Segoe UI Emoji" font-size="20px" fill="#1e1e1e" text-anchor="start" style="white-space: pre;" direction="ltr" dominant-baseline="alphabetic">- calculatePrice(ticket):Number</text><text x="0" y="91.3125" font-family="Cascadia, Segoe UI Emoji" font-size="20px" fill="#1e1e1e" text-anchor="start" style="white-space: pre;" direction="ltr" dominant-baseline="alphabetic">+ payment(tiket:Ticket):Payment</text></g><g stroke-linecap="round" transform="translate(1992.430958229711 1503.2408528023009) rotate(0 222.00048572865148 147.54929767599884)"><path d="M32 0 C161.53 0.3, 291.28 -0.42, 412 0 M32 0 C167.32 -0.18, 303.45 -0.78, 412 0 M412 0 C434.26 1.61, 443.99 9.48, 444 32 M412 0 C434.38 0.79, 443.75 10.01, 444 32 M444 32 C445.5 120, 445.43 205.77, 444 263.1 M444 32 C444.07 124.37, 444.9 216.73, 444 263.1 M444 263.1 C444.72 286.24, 431.49 294.24, 412 295.1 M444 263.1 C444.06 285.82, 431.43 293.11, 412 295.1 M412 295.1 C270.43 294.35, 126.8 293.97, 32 295.1 M412 295.1 C274.15 294.04, 135.57 294.25, 32 295.1 M32 295.1 C12.41 294.88, -0.39 285.81, 0 263.1 M32 295.1 C12.07 294.75, -0.47 285.46, 0 263.1 M0 263.1 C-2.51 171.42, -1.67 81.87, 0 32 M0 263.1 C-0.71 199.9, -1.22 137.58, 0 32 M0 32 C1.63 11.49, 11.79 -0.13, 32 0 M0 32 C-0.67 12.41, 12.76 -0.44, 32 0" stroke="#1e1e1e" stroke-width="2" fill="none"></path></g><g transform="translate(2106.951110181474 1520.4476355438467) rotate(0 41.015625 12)"><text x="0" y="19.3125" font-family="Cascadia, Segoe UI Emoji" font-size="20px" fill="#1e1e1e" text-anchor="start" style="white-space: pre;" direction="ltr" dominant-baseline="alphabetic">Payment</text></g><g transform="translate(2033.3974710279244 1573.7740239301704) rotate(0 117.1875 48)"><text x="0" y="19.3125" font-family="Cascadia, Segoe UI Emoji" font-size="20px" fill="#1e1e1e" text-anchor="start" style="white-space: pre;" direction="ltr" dominant-baseline="alphabetic">id: Number</text><text x="0" y="43.3125" font-family="Cascadia, Segoe UI Emoji" font-size="20px" fill="#1e1e1e" text-anchor="start" style="white-space: pre;" direction="ltr" dominant-baseline="alphabetic">amount: Number</text><text x="0" y="67.3125" font-family="Cascadia, Segoe UI Emoji" font-size="20px" fill="#1e1e1e" text-anchor="start" style="white-space: pre;" direction="ltr" dominant-baseline="alphabetic">ticketId: Number</text><text x="0" y="91.3125" font-family="Cascadia, Segoe UI Emoji" font-size="20px" fill="#1e1e1e" text-anchor="start" style="white-space: pre;" direction="ltr" dominant-baseline="alphabetic">paymentTime:DateTime</text></g><g stroke-linecap="round"><g transform="translate(1992.5132818294408 1687.3972582987806) rotate(0 177.07758602520778 1.4465552774663024)"><path d="M-0.76 1.13 C58.32 1.67, 294.74 2.28, 354.01 2.71 M1.04 0.67 C59.99 1.45, 294.09 3.96, 352.98 4.14" stroke="#1e1e1e" stroke-width="2" fill="none"></path></g></g><mask></mask><g transform="translate(2028.8003685808276 1713.5259383219156) rotate(0 187.5 12)"><text x="0" y="19.3125" font-family="Cascadia, Segoe UI Emoji" font-size="20px" fill="#1e1e1e" text-anchor="start" style="white-space: pre;" direction="ltr" dominant-baseline="alphabetic">create(amount, ticketId):Payment</text></g><g stroke-linecap="round" transform="translate(1992.715246816099 1884.978190599512) rotate(0 118.75838635504738 89.58878366948886)"><path d="M32 0 C96.52 -0.56, 157.64 0.5, 205.52 0 M32 0 C85.81 1.29, 138.86 0.9, 205.52 0 M205.52 0 C227.36 0.61, 237.67 11.21, 237.52 32 M205.52 0 C227.67 -0.12, 239.55 11.15, 237.52 32 M237.52 32 C236.41 63.07, 235.33 90.59, 237.52 147.18 M237.52 32 C236.38 75.92, 235.85 121.26, 237.52 147.18 M237.52 147.18 C237.74 170.21, 226.81 179.96, 205.52 179.18 M237.52 147.18 C235.34 167.86, 227.52 176.95, 205.52 179.18 M205.52 179.18 C160.96 178.94, 118.34 182.04, 32 179.18 M205.52 179.18 C162.22 178.47, 121.68 177.8, 32 179.18 M32 179.18 C9.64 179.55, 1.06 169.36, 0 147.18 M32 179.18 C11.36 180.53, 1.16 168.77, 0 147.18 M0 147.18 C1.73 118.18, -0.87 88.58, 0 32 M0 147.18 C-1.31 114.44, 0.12 82.41, 0 32 M0 32 C-0.46 12.23, 11.02 -1.21, 32 0 M0 32 C0.26 10.94, 12.14 1.18, 32 0" stroke="#1e1e1e" stroke-width="2" fill="none"></path></g><g stroke-linecap="round" transform="translate(2274.816954758353 1884.898336146604) rotate(0 106.01439008516991 87.43756755915877)"><path d="M32 0 C66.02 1.1, 96.12 -0.32, 180.03 0 M32 0 C86.15 0.99, 140.13 1.18, 180.03 0 M180.03 0 C200.99 -1.34, 211.44 11.77, 212.03 32 M180.03 0 C202.39 0.71, 210.31 9.94, 212.03 32 M212.03 32 C211.99 65.13, 213.75 94.65, 212.03 142.88 M212.03 32 C212.07 56.5, 211.88 82.21, 212.03 142.88 M212.03 142.88 C212.06 165.05, 200.66 176.42, 180.03 174.88 M212.03 142.88 C211.89 161.92, 201 175.44, 180.03 174.88 M180.03 174.88 C140.43 173.92, 102.32 175.17, 32 174.88 M180.03 174.88 C132.2 176.69, 84.53 175.56, 32 174.88 M32 174.88 C9.45 175.25, 0.66 163.21, 0 142.88 M32 174.88 C9.02 175.87, -0.39 163.61, 0 142.88 M0 142.88 C-0.69 102.94, 0.74 65.57, 0 32 M0 142.88 C-0.15 112.55, 0.94 82.79, 0 32 M0 32 C-1.67 8.84, 12.09 0.24, 32 0 M0 32 C0.29 9.34, 9.56 -0.04, 32 0" stroke="#1e1e1e" stroke-width="2" fill="none"></path></g><g transform="translate(2052.7053013057302 1888.2158313115972) rotate(0 64.453125 12)"><text x="0" y="19.3125" font-family="Cascadia, Segoe UI Emoji" font-size="20px" fill="#1e1e1e" text-anchor="start" style="white-space: pre;" direction="ltr" dominant-baseline="alphabetic">CardPayment</text></g><g transform="translate(2324.8537661738656 1900.1682976740492) rotate(0 64.453125 12)"><text x="0" y="19.3125" font-family="Cascadia, Segoe UI Emoji" font-size="20px" fill="#1e1e1e" text-anchor="start" style="white-space: pre;" direction="ltr" dominant-baseline="alphabetic">CashPayment</text></g><g stroke-linecap="round"><g transform="translate(2136.828852952236 1858.6964515318887) rotate(0 2.6413136960443353 -19.562152400490533)"><path d="M-0.12 -0.35 C0.84 -6.74, 4.48 -32.34, 5.44 -38.82 M0.82 0.66 C1.75 -5.85, 4.31 -33.08, 5.1 -39.63" stroke="#1e1e1e" stroke-width="2" fill="none"></path></g><g transform="translate(2136.828852952236 1858.6964515318887) rotate(0 2.6413136960443353 -19.562152400490533)"><path d="M9.86 -20.47 C8.18 -24.73, 8.23 -28.83, 5.1 -39.63 M9.86 -20.47 C7.98 -26.16, 7.58 -30.91, 5.1 -39.63" stroke="#1e1e1e" stroke-width="2" fill="none"></path></g><g transform="translate(2136.828852952236 1858.6964515318887) rotate(0 2.6413136960443353 -19.562152400490533)"><path d="M-3.57 -21.89 C-2.07 -25.8, 1.16 -29.57, 5.1 -39.63 M-3.57 -21.89 C-1.62 -27.19, 1.8 -31.53, 5.1 -39.63" stroke="#1e1e1e" stroke-width="2" fill="none"></path></g></g><mask></mask><g stroke-linecap="round"><g transform="translate(2375.4660010328907 1862.6348529471984) rotate(0 -21.903745342507136 -22.452892013304137)"><path d="M0.36 0.43 C-7.25 -7.06, -37.49 -37.5, -44.72 -45.01 M-0.92 -0.39 C-8.23 -7.67, -35.41 -36.39, -42.49 -43.52" stroke="#1e1e1e" stroke-width="2" fill="none"></path></g><g transform="translate(2375.4660010328907 1862.6348529471984) rotate(0 -21.903745342507136 -22.452892013304137)"><path d="M-20.01 -32.58 C-27.76 -38.16, -37.12 -39.47, -42.49 -43.52 M-20.01 -32.58 C-27.3 -36.58, -33.63 -39.61, -42.49 -43.52" stroke="#1e1e1e" stroke-width="2" fill="none"></path></g><g transform="translate(2375.4660010328907 1862.6348529471984) rotate(0 -21.903745342507136 -22.452892013304137)"><path d="M-32.3 -20.69 C-35.41 -30.79, -40.13 -36.59, -42.49 -43.52 M-32.3 -20.69 C-35.58 -28.56, -37.94 -35.43, -42.49 -43.52" stroke="#1e1e1e" stroke-width="2" fill="none"></path></g></g><mask></mask><g stroke-linecap="round"><g transform="translate(1972.63210443613 1408.1757540076162) rotate(0 32.53586350028979 34.99277682229652)"><path d="M-1.06 0.3 C9.81 12.05, 54.49 58.06, 65.66 69.62 M0.58 -0.59 C11.31 11.42, 54.17 59.06, 65.02 70.96" stroke="#1e1e1e" stroke-width="2" fill="none"></path></g><g transform="translate(1972.63210443613 1408.1757540076162) rotate(0 32.53586350028979 34.99277682229652)"><path d="M42.92 59.27 C50.73 64.36, 57.02 68.8, 65.02 70.96 M42.92 59.27 C49.87 63.23, 54.54 65.65, 65.02 70.96" stroke="#1e1e1e" stroke-width="2" fill="none"></path></g><g transform="translate(1972.63210443613 1408.1757540076162) rotate(0 32.53586350028979 34.99277682229652)"><path d="M55.6 47.8 C59.07 56.62, 61.12 64.9, 65.02 70.96 M55.6 47.8 C59.17 54.99, 60.37 60.54, 65.02 70.96" stroke="#1e1e1e" stroke-width="2" fill="none"></path></g></g><mask></mask><g stroke-linecap="round"><g transform="translate(1312.919564206245 992.969748322581) rotate(0 -1.1971714484270706 34.52010355677049)"><path d="M-1.05 0.47 C-1.61 11.88, -3.03 58.11, -3.35 69.6 M0.6 -0.34 C0.41 11.23, -0.37 56.51, -1.14 67.77" stroke="#1e1e1e" stroke-width="2" fill="none"></path></g><g transform="translate(1312.919564206245 992.969748322581) rotate(0 -1.1971714484270706 34.52010355677049)"><path d="M-8.77 43.96 C-5.48 49.59, -3.03 57.42, -1.14 67.77 M-8.77 43.96 C-6.63 51.36, -3.6 59.83, -1.14 67.77" stroke="#1e1e1e" stroke-width="2" fill="none"></path></g><g transform="translate(1312.919564206245 992.969748322581) rotate(0 -1.1971714484270706 34.52010355677049)"><path d="M8.31 44.62 C6.47 49.91, 3.78 57.53, -1.14 67.77 M8.31 44.62 C4.82 51.92, 2.22 60.18, -1.14 67.77" stroke="#1e1e1e" stroke-width="2" fill="none"></path></g></g><mask></mask><g stroke-linecap="round"><g transform="translate(1583.552590212273 994.9585338538935) rotate(0 43.37241579155341 39.44060812059848)"><path d="M-1.01 1 C13.58 13.99, 72.14 64.93, 86.94 77.94 M0.65 0.48 C15.16 13.59, 71.6 65.65, 86.1 78.99" stroke="#1e1e1e" stroke-width="2" fill="none"></path></g><g transform="translate(1583.552590212273 994.9585338538935) rotate(0 43.37241579155341 39.44060812059848)"><path d="M63.03 69.36 C70.45 72.29, 72.98 76.17, 86.1 78.99 M63.03 69.36 C70.61 71.59, 78.17 74.52, 86.1 78.99" stroke="#1e1e1e" stroke-width="2" fill="none"></path></g><g transform="translate(1583.552590212273 994.9585338538935) rotate(0 43.37241579155341 39.44060812059848)"><path d="M74.61 56.78 C79.14 62.75, 78.78 69.77, 86.1 78.99 M74.61 56.78 C78.44 63.04, 82.34 69.94, 86.1 78.99" stroke="#1e1e1e" stroke-width="2" fill="none"></path></g></g><mask></mask><g stroke-linecap="round"><g transform="translate(1088.4703490139102 767.0650458077487) rotate(0 -134.48381382388868 335.7096344903688)"><path d="M1.18 0.33 C-43.65 50.25, -222.86 188.27, -267.91 300.28 C-312.96 412.3, -268.8 610.41, -269.09 672.44 M0.34 -0.54 C-44.66 49.53, -223.27 190.04, -268.32 301.91 C-313.36 413.77, -269.68 609.21, -269.92 670.63" stroke="#1e1e1e" stroke-width="2" fill="none"></path></g><g transform="translate(1088.4703490139102 767.0650458077487) rotate(0 -134.48381382388868 335.7096344903688)"><path d="M-280.64 648.05 C-275.73 658.52, -271.8 665.47, -269.92 670.63 M-280.64 648.05 C-276.74 656.46, -273.5 666.18, -269.92 670.63" stroke="#1e1e1e" stroke-width="2" fill="none"></path></g><g transform="translate(1088.4703490139102 767.0650458077487) rotate(0 -134.48381382388868 335.7096344903688)"><path d="M-263.61 646.44 C-265.38 657.71, -268.14 665.29, -269.92 670.63 M-263.61 646.44 C-266.28 655.63, -269.59 665.96, -269.92 670.63" stroke="#1e1e1e" stroke-width="2" fill="none"></path></g></g><mask></mask><g stroke-linecap="round"><g transform="translate(1118.2123781818475 760.9746056001782) rotate(0 307.3182476478145 -1.635748115921274)"><path d="M0.65 -0.7 C102.88 -1.37, 512.34 -3.74, 614.61 -4.17 M-0.47 1.55 C101.5 1.01, 511.35 -2.52, 613.65 -3.1" stroke="#1e1e1e" stroke-width="2" fill="none"></path></g></g><mask></mask><g transform="translate(1158.8229930851955 792.0568364229596) rotate(0 246.09375 24)"><text x="0" y="19.3125" font-family="Cascadia, Segoe UI Emoji" font-size="20px" fill="#1e1e1e" text-anchor="start" style="white-space: pre;" direction="ltr" dominant-baseline="alphabetic">addParkingFloor(parkingFloor:ParkingFloor)</text><text x="0" y="43.3125" font-family="Cascadia, Segoe UI Emoji" font-size="20px" fill="#1e1e1e" text-anchor="start" style="white-space: pre;" direction="ltr" dominant-baseline="alphabetic">add</text></g></svg>